<svg id="visual" viewBox="0 0 900 600" width="900" height="600" xmlns="http://www.w3.org/2000/svg" xmlns:xlink="http://www.w3.org/1999/xlink" version="1.1"><rect x="0" y="0" width="900" height="600" fill="#F1F5F9"></rect><defs><linearGradient id="grad1_0" x1="33.3%" y1="0%" x2="100%" y2="100%"><stop offset="20%" stop-color="#f1f5f9" stop-opacity="1"></stop><stop offset="80%" stop-color="#f1f5f9" stop-opacity="1"></stop></linearGradient></defs><defs><linearGradient id="grad2_0" x1="0%" y1="0%" x2="66.7%" y2="100%"><stop offset="20%" stop-color="#f1f5f9" stop-opacity="1"></stop><stop offset="80%" stop-color="#f1f5f9" stop-opacity="1"></stop></linearGradient></defs><g transform="translate(900, 0)"><path d="M0 216.3C-19 215.4 -38 214.5 -56 209C-74 203.4 -91 193.2 -103.5 179.3C-116 165.4 -123.8 147.8 -133.6 133.6C-143.4 119.5 -155.2 108.7 -166.3 96C-177.4 83.3 -187.8 68.8 -196.1 52.5C-204.3 36.2 -210.3 18.1 -216.3 0L0 0Z" fill="#1E293B"></path></g><g transform="translate(0, 600)"><path d="M0 -216.3C16.9 -206.6 33.7 -196.9 51.5 -192.2C69.3 -187.5 88 -187.8 103.5 -179.3C119 -170.7 131.3 -153.4 135.1 -135.1C138.9 -116.7 134.2 -97.4 148.1 -85.5C162 -73.6 194.5 -69 209 -56C223.4 -43 219.9 -21.5 216.3 0L0 0Z" fill="#1E293B"></path></g></svg>