<svg id="visual" viewBox="0 0 1920 1080" width="1920" height="1080" xmlns="http://www.w3.org/2000/svg" xmlns:xlink="http://www.w3.org/1999/xlink" version="1.1"><rect x="0" y="0" width="1920" height="1080" fill="#F1F5F9"></rect><path d="M0 260L29.2 250.7C58.3 241.3 116.7 222.7 174.8 221C233 219.3 291 234.7 349.2 240.2C407.3 245.7 465.7 241.3 523.8 240.8C582 240.3 640 243.7 698.2 247.8C756.3 252 814.7 257 872.8 257.3C931 257.7 989 253.3 1047.2 244.2C1105.3 235 1163.7 221 1221.8 217.8C1280 214.7 1338 222.3 1396.2 227.5C1454.3 232.7 1512.7 235.3 1570.8 236.7C1629 238 1687 238 1745.2 234.8C1803.3 231.7 1861.7 225.3 1890.8 222.2L1920 219L1920 0L1890.8 0C1861.7 0 1803.3 0 1745.2 0C1687 0 1629 0 1570.8 0C1512.7 0 1454.3 0 1396.2 0C1338 0 1280 0 1221.8 0C1163.7 0 1105.3 0 1047.2 0C989 0 931 0 872.8 0C814.7 0 756.3 0 698.2 0C640 0 582 0 523.8 0C465.7 0 407.3 0 349.2 0C291 0 233 0 174.8 0C116.7 0 58.3 0 29.2 0L0 0Z" fill="#3d4b64"></path><path d="M0 136L29.2 143.2C58.3 150.3 116.7 164.7 174.8 169.5C233 174.3 291 169.7 349.2 169C407.3 168.3 465.7 171.7 523.8 171.3C582 171 640 167 698.2 169.8C756.3 172.7 814.7 182.3 872.8 186.8C931 191.3 989 190.7 1047.2 186.8C1105.3 183 1163.7 176 1221.8 170.8C1280 165.7 1338 162.3 1396.2 154.8C1454.3 147.3 1512.7 135.7 1570.8 131.3C1629 127 1687 130 1745.2 133.7C1803.3 137.3 1861.7 141.7 1890.8 143.8L1920 146L1920 0L1890.8 0C1861.7 0 1803.3 0 1745.2 0C1687 0 1629 0 1570.8 0C1512.7 0 1454.3 0 1396.2 0C1338 0 1280 0 1221.8 0C1163.7 0 1105.3 0 1047.2 0C989 0 931 0 872.8 0C814.7 0 756.3 0 698.2 0C640 0 582 0 523.8 0C465.7 0 407.3 0 349.2 0C291 0 233 0 174.8 0C116.7 0 58.3 0 29.2 0L0 0Z" fill="#1e293b"></path><path d="M0 68L29.2 70.7C58.3 73.3 116.7 78.7 174.8 85.5C233 92.3 291 100.7 349.2 102.8C407.3 105 465.7 101 523.8 101.5C582 102 640 107 698.2 98.2C756.3 89.3 814.7 66.7 872.8 64.5C931 62.3 989 80.7 1047.2 87.5C1105.3 94.3 1163.7 89.7 1221.8 84.8C1280 80 1338 75 1396.2 68.5C1454.3 62 1512.7 54 1570.8 50.5C1629 47 1687 48 1745.2 53.8C1803.3 59.7 1861.7 70.3 1890.8 75.7L1920 81L1920 0L1890.8 0C1861.7 0 1803.3 0 1745.2 0C1687 0 1629 0 1570.8 0C1512.7 0 1454.3 0 1396.2 0C1338 0 1280 0 1221.8 0C1163.7 0 1105.3 0 1047.2 0C989 0 931 0 872.8 0C814.7 0 756.3 0 698.2 0C640 0 582 0 523.8 0C465.7 0 407.3 0 349.2 0C291 0 233 0 174.8 0C116.7 0 58.3 0 29.2 0L0 0Z" fill="#18202c"></path></svg>