<svg id="visual" viewBox="0 0 1920 1080" width="1920" height="1080" xmlns="http://www.w3.org/2000/svg" xmlns:xlink="http://www.w3.org/1999/xlink" version="1.1"><rect x="0" y="0" width="1920" height="1080" fill="#1E293B"></rect><path d="M0 509L45.7 504.7C91.3 500.3 182.7 491.7 274.2 470.5C365.7 449.3 457.3 415.7 548.8 431C640.3 446.3 731.7 510.7 823 521.8C914.3 533 1005.7 491 1097 472.8C1188.3 454.7 1279.7 460.3 1371.2 485.2C1462.7 510 1554.3 554 1645.8 548.2C1737.3 542.3 1828.7 486.7 1874.3 458.8L1920 431L1920 1081L1874.3 1081C1828.7 1081 1737.3 1081 1645.8 1081C1554.3 1081 1462.7 1081 1371.2 1081C1279.7 1081 1188.3 1081 1097 1081C1005.7 1081 914.3 1081 823 1081C731.7 1081 640.3 1081 548.8 1081C457.3 1081 365.7 1081 274.2 1081C182.7 1081 91.3 1081 45.7 1081L0 1081Z" fill="#3d4b64"></path><path d="M0 560L45.7 578.7C91.3 597.3 182.7 634.7 274.2 627.8C365.7 621 457.3 570 548.8 571.2C640.3 572.3 731.7 625.7 823 639.3C914.3 653 1005.7 627 1097 627.2C1188.3 627.3 1279.7 653.7 1371.2 638.3C1462.7 623 1554.3 566 1645.8 548.3C1737.3 530.7 1828.7 552.3 1874.3 563.2L1920 574L1920 1081L1874.3 1081C1828.7 1081 1737.3 1081 1645.8 1081C1554.3 1081 1462.7 1081 1371.2 1081C1279.7 1081 1188.3 1081 1097 1081C1005.7 1081 914.3 1081 823 1081C731.7 1081 640.3 1081 548.8 1081C457.3 1081 365.7 1081 274.2 1081C182.7 1081 91.3 1081 45.7 1081L0 1081Z" fill="#2d3a4f"></path><path d="M0 782L45.7 767.7C91.3 753.3 182.7 724.7 274.2 698.5C365.7 672.3 457.3 648.7 548.8 644.7C640.3 640.7 731.7 656.3 823 664C914.3 671.7 1005.7 671.3 1097 690.2C1188.3 709 1279.7 747 1371.2 740C1462.7 733 1554.3 681 1645.8 657.8C1737.3 634.7 1828.7 640.3 1874.3 643.2L1920 646L1920 1081L1874.3 1081C1828.7 1081 1737.3 1081 1645.8 1081C1554.3 1081 1462.7 1081 1371.2 1081C1279.7 1081 1188.3 1081 1097 1081C1005.7 1081 914.3 1081 823 1081C731.7 1081 640.3 1081 548.8 1081C457.3 1081 365.7 1081 274.2 1081C182.7 1081 91.3 1081 45.7 1081L0 1081Z" fill="#1e293b"></path><path d="M0 802L45.7 807.8C91.3 813.7 182.7 825.3 274.2 823.2C365.7 821 457.3 805 548.8 798.5C640.3 792 731.7 795 823 804.5C914.3 814 1005.7 830 1097 829C1188.3 828 1279.7 810 1371.2 799.5C1462.7 789 1554.3 786 1645.8 794.8C1737.3 803.7 1828.7 824.3 1874.3 834.7L1920 845L1920 1081L1874.3 1081C1828.7 1081 1737.3 1081 1645.8 1081C1554.3 1081 1462.7 1081 1371.2 1081C1279.7 1081 1188.3 1081 1097 1081C1005.7 1081 914.3 1081 823 1081C731.7 1081 640.3 1081 548.8 1081C457.3 1081 365.7 1081 274.2 1081C182.7 1081 91.3 1081 45.7 1081L0 1081Z" fill="#1b2433"></path><path d="M0 932L45.7 923.3C91.3 914.7 182.7 897.3 274.2 900C365.7 902.7 457.3 925.3 548.8 932.8C640.3 940.3 731.7 932.7 823 934.7C914.3 936.7 1005.7 948.3 1097 947.2C1188.3 946 1279.7 932 1371.2 919.3C1462.7 906.7 1554.3 895.3 1645.8 898.3C1737.3 901.3 1828.7 918.7 1874.3 927.3L1920 936L1920 1081L1874.3 1081C1828.7 1081 1737.3 1081 1645.8 1081C1554.3 1081 1462.7 1081 1371.2 1081C1279.7 1081 1188.3 1081 1097 1081C1005.7 1081 914.3 1081 823 1081C731.7 1081 640.3 1081 548.8 1081C457.3 1081 365.7 1081 274.2 1081C182.7 1081 91.3 1081 45.7 1081L0 1081Z" fill="#18202c"></path></svg>