<svg id="visual" viewBox="0 0 1920 1080" width="1920" height="1080" xmlns="http://www.w3.org/2000/svg" xmlns:xlink="http://www.w3.org/1999/xlink" version="1.1"><rect x="0" y="0" width="1920" height="1080" fill="#F1F5F9"></rect><path d="M0 345L45.7 341.7C91.3 338.3 182.7 331.7 274.2 321.5C365.7 311.3 457.3 297.7 548.8 302.2C640.3 306.7 731.7 329.3 823 341.5C914.3 353.7 1005.7 355.3 1097 350.8C1188.3 346.3 1279.7 335.7 1371.2 337.5C1462.7 339.3 1554.3 353.7 1645.8 352.7C1737.3 351.7 1828.7 335.3 1874.3 327.2L1920 319L1920 0L1874.3 0C1828.7 0 1737.3 0 1645.8 0C1554.3 0 1462.7 0 1371.2 0C1279.7 0 1188.3 0 1097 0C1005.7 0 914.3 0 823 0C731.7 0 640.3 0 548.8 0C457.3 0 365.7 0 274.2 0C182.7 0 91.3 0 45.7 0L0 0Z" fill="#3d4b64"></path><path d="M0 242L45.7 248.3C91.3 254.7 182.7 267.3 274.2 269C365.7 270.7 457.3 261.3 548.8 253C640.3 244.7 731.7 237.3 823 235.5C914.3 233.7 1005.7 237.3 1097 234.8C1188.3 232.3 1279.7 223.7 1371.2 230C1462.7 236.3 1554.3 257.7 1645.8 267.7C1737.3 277.7 1828.7 276.3 1874.3 275.7L1920 275L1920 0L1874.3 0C1828.7 0 1737.3 0 1645.8 0C1554.3 0 1462.7 0 1371.2 0C1279.7 0 1188.3 0 1097 0C1005.7 0 914.3 0 823 0C731.7 0 640.3 0 548.8 0C457.3 0 365.7 0 274.2 0C182.7 0 91.3 0 45.7 0L0 0Z" fill="#283448"></path><path d="M0 149L45.7 160.2C91.3 171.3 182.7 193.7 274.2 192C365.7 190.3 457.3 164.7 548.8 153C640.3 141.3 731.7 143.7 823 153.3C914.3 163 1005.7 180 1097 182C1188.3 184 1279.7 171 1371.2 172C1462.7 173 1554.3 188 1645.8 192.3C1737.3 196.7 1828.7 190.3 1874.3 187.2L1920 184L1920 0L1874.3 0C1828.7 0 1737.3 0 1645.8 0C1554.3 0 1462.7 0 1371.2 0C1279.7 0 1188.3 0 1097 0C1005.7 0 914.3 0 823 0C731.7 0 640.3 0 548.8 0C457.3 0 365.7 0 274.2 0C182.7 0 91.3 0 45.7 0L0 0Z" fill="#1c2636"></path><path d="M0 115L45.7 117C91.3 119 182.7 123 274.2 126C365.7 129 457.3 131 548.8 131C640.3 131 731.7 129 823 120.8C914.3 112.7 1005.7 98.3 1097 96.2C1188.3 94 1279.7 104 1371.2 103.5C1462.7 103 1554.3 92 1645.8 90.7C1737.3 89.3 1828.7 97.7 1874.3 101.8L1920 106L1920 0L1874.3 0C1828.7 0 1737.3 0 1645.8 0C1554.3 0 1462.7 0 1371.2 0C1279.7 0 1188.3 0 1097 0C1005.7 0 914.3 0 823 0C731.7 0 640.3 0 548.8 0C457.3 0 365.7 0 274.2 0C182.7 0 91.3 0 45.7 0L0 0Z" fill="#18202c"></path></svg>