<svg id="visual" viewBox="0 0 900 600" width="900" height="600" xmlns="http://www.w3.org/2000/svg" xmlns:xlink="http://www.w3.org/1999/xlink" version="1.1"><path d="M0 73L21.5 75C43 77 86 81 128.8 80C171.7 79 214.3 73 257.2 77C300 81 343 95 385.8 95C428.7 95 471.3 81 514.2 77C557 73 600 79 642.8 80C685.7 81 728.3 77 771.2 78C814 79 857 85 878.5 88L900 91L900 0L878.5 0C857 0 814 0 771.2 0C728.3 0 685.7 0 642.8 0C600 0 557 0 514.2 0C471.3 0 428.7 0 385.8 0C343 0 300 0 257.2 0C214.3 0 171.7 0 128.8 0C86 0 43 0 21.5 0L0 0Z" fill="#18202c"></path><path d="M0 181L21.5 182C43 183 86 185 128.8 182C171.7 179 214.3 171 257.2 176C300 181 343 199 385.8 200C428.7 201 471.3 185 514.2 182C557 179 600 189 642.8 189C685.7 189 728.3 179 771.2 173C814 167 857 165 878.5 164L900 163L900 89L878.5 86C857 83 814 77 771.2 76C728.3 75 685.7 79 642.8 78C600 77 557 71 514.2 75C471.3 79 428.7 93 385.8 93C343 93 300 79 257.2 75C214.3 71 171.7 77 128.8 78C86 79 43 75 21.5 73L0 71Z" fill="#1b2433"></path><path d="M0 307L21.5 309C43 311 86 315 128.8 322C171.7 329 214.3 339 257.2 341C300 343 343 337 385.8 342C428.7 347 471.3 363 514.2 367C557 371 600 363 642.8 353C685.7 343 728.3 331 771.2 335C814 339 857 359 878.5 369L900 379L900 161L878.5 162C857 163 814 165 771.2 171C728.3 177 685.7 187 642.8 187C600 187 557 177 514.2 180C471.3 183 428.7 199 385.8 198C343 197 300 179 257.2 174C214.3 169 171.7 177 128.8 180C86 183 43 181 21.5 180L0 179Z" fill="#1e293b"></path><path d="M0 367L21.5 374C43 381 86 395 128.8 407C171.7 419 214.3 429 257.2 428C300 427 343 415 385.8 418C428.7 421 471.3 439 514.2 440C557 441 600 425 642.8 414C685.7 403 728.3 397 771.2 405C814 413 857 435 878.5 446L900 457L900 377L878.5 367C857 357 814 337 771.2 333C728.3 329 685.7 341 642.8 351C600 361 557 369 514.2 365C471.3 361 428.7 345 385.8 340C343 335 300 341 257.2 339C214.3 337 171.7 327 128.8 320C86 313 43 309 21.5 307L0 305Z" fill="#2d3a4f"></path><path d="M0 601L21.5 601C43 601 86 601 128.8 601C171.7 601 214.3 601 257.2 601C300 601 343 601 385.8 601C428.7 601 471.3 601 514.2 601C557 601 600 601 642.8 601C685.7 601 728.3 601 771.2 601C814 601 857 601 878.5 601L900 601L900 455L878.5 444C857 433 814 411 771.2 403C728.3 395 685.7 401 642.8 412C600 423 557 439 514.2 438C471.3 437 428.7 419 385.8 416C343 413 300 425 257.2 426C214.3 427 171.7 417 128.8 405C86 393 43 379 21.5 372L0 365Z" fill="#3d4b64"></path></svg>