<svg id="visual" viewBox="0 0 1920 1080" width="1920" height="1080" xmlns="http://www.w3.org/2000/svg" xmlns:xlink="http://www.w3.org/1999/xlink" version="1.1"><path d="M0 174L45.7 184.8C91.3 195.7 182.7 217.3 274.2 211.8C365.7 206.3 457.3 173.7 548.8 168.2C640.3 162.7 731.7 184.3 823 200.7C914.3 217 1005.7 228 1097 235.2C1188.3 242.3 1279.7 245.7 1371.2 238.3C1462.7 231 1554.3 213 1645.8 200.5C1737.3 188 1828.7 181 1874.3 177.5L1920 174L1920 0L1874.3 0C1828.7 0 1737.3 0 1645.8 0C1554.3 0 1462.7 0 1371.2 0C1279.7 0 1188.3 0 1097 0C1005.7 0 914.3 0 823 0C731.7 0 640.3 0 548.8 0C457.3 0 365.7 0 274.2 0C182.7 0 91.3 0 45.7 0L0 0Z" fill="#18202c"></path><path d="M0 476L45.7 476C91.3 476 182.7 476 274.2 490.5C365.7 505 457.3 534 548.8 539.5C640.3 545 731.7 527 823 510.7C914.3 494.3 1005.7 479.7 1097 476C1188.3 472.3 1279.7 479.7 1371.2 470.7C1462.7 461.7 1554.3 436.3 1645.8 436.3C1737.3 436.3 1828.7 461.7 1874.3 474.3L1920 487L1920 172L1874.3 175.5C1828.7 179 1737.3 186 1645.8 198.5C1554.3 211 1462.7 229 1371.2 236.3C1279.7 243.7 1188.3 240.3 1097 233.2C1005.7 226 914.3 215 823 198.7C731.7 182.3 640.3 160.7 548.8 166.2C457.3 171.7 365.7 204.3 274.2 209.8C182.7 215.3 91.3 193.7 45.7 182.8L0 172Z" fill="#1b2433"></path><path d="M0 757L45.7 767.8C91.3 778.7 182.7 800.3 274.2 809.3C365.7 818.3 457.3 814.7 548.8 812.8C640.3 811 731.7 811 823 811C914.3 811 1005.7 811 1097 814.7C1188.3 818.3 1279.7 825.7 1371.2 823.8C1462.7 822 1554.3 811 1645.8 811C1737.3 811 1828.7 822 1874.3 827.5L1920 833L1920 485L1874.3 472.3C1828.7 459.7 1737.3 434.3 1645.8 434.3C1554.3 434.3 1462.7 459.7 1371.2 468.7C1279.7 477.7 1188.3 470.3 1097 474C1005.7 477.7 914.3 492.3 823 508.7C731.7 525 640.3 543 548.8 537.5C457.3 532 365.7 503 274.2 488.5C182.7 474 91.3 474 45.7 474L0 474Z" fill="#1e293b"></path><path d="M0 951L45.7 945.7C91.3 940.3 182.7 929.7 274.2 928C365.7 926.3 457.3 933.7 548.8 935.5C640.3 937.3 731.7 933.7 823 942.7C914.3 951.7 1005.7 973.3 1097 982.3C1188.3 991.3 1279.7 987.7 1371.2 985.8C1462.7 984 1554.3 984 1645.8 984C1737.3 984 1828.7 984 1874.3 984L1920 984L1920 831L1874.3 825.5C1828.7 820 1737.3 809 1645.8 809C1554.3 809 1462.7 820 1371.2 821.8C1279.7 823.7 1188.3 816.3 1097 812.7C1005.7 809 914.3 809 823 809C731.7 809 640.3 809 548.8 810.8C457.3 812.7 365.7 816.3 274.2 807.3C182.7 798.3 91.3 776.7 45.7 765.8L0 755Z" fill="#2d3a4f"></path><path d="M0 1081L45.7 1081C91.3 1081 182.7 1081 274.2 1081C365.7 1081 457.3 1081 548.8 1081C640.3 1081 731.7 1081 823 1081C914.3 1081 1005.7 1081 1097 1081C1188.3 1081 1279.7 1081 1371.2 1081C1462.7 1081 1554.3 1081 1645.8 1081C1737.3 1081 1828.7 1081 1874.3 1081L1920 1081L1920 982L1874.3 982C1828.7 982 1737.3 982 1645.8 982C1554.3 982 1462.7 982 1371.2 983.8C1279.7 985.7 1188.3 989.3 1097 980.3C1005.7 971.3 914.3 949.7 823 940.7C731.7 931.7 640.3 935.3 548.8 933.5C457.3 931.7 365.7 924.3 274.2 926C182.7 927.7 91.3 938.3 45.7 943.7L0 949Z" fill="#3d4b64"></path></svg>